<svg width="141" height="40" viewBox="0 0 141 40" fill="none" xmlns="http://www.w3.org/2000/svg">
<path d="M18.7292 2.78703C18.7803 2.8735 18.7127 2.9804 18.6123 2.9804C16.5791 2.9804 14.9263 4.59013 14.8875 6.59043C14.1913 6.46045 13.4699 6.45068 12.7572 6.57075C12.708 4.57958 11.0594 2.9804 9.03291 2.9804C8.93241 2.9804 8.86481 2.87342 8.91591 2.78688C9.90011 1.12003 11.7289 0 13.8225 0C15.9161 0 17.745 1.12009 18.7292 2.78703Z" fill="#FF9A0A"/>
<path d="M24.7509 15.1586C25.4425 15.368 26.0942 14.7601 25.8332 14.0863C23.8935 9.07882 18.1527 7.02734 13.7945 7.02734C9.42791 7.02734 3.55912 9.14516 1.7458 14.1175C1.50166 14.787 2.15162 15.3748 2.83293 15.166L13.2771 11.9657C13.5785 11.8733 13.9007 11.8728 14.2025 11.9642L24.7509 15.1586Z" fill="#FF9A0A"/>
<path d="M1.6443 16.1226L13.2862 12.5917C13.5859 12.5009 13.9058 12.5006 14.2056 12.591L25.9207 16.1243C26.899 16.4194 27.5684 17.3205 27.5684 18.3423V28.9878C27.523 31.5863 25.1887 33.6691 22.5911 33.6691H18.2765C17.85 33.6691 17.5046 33.3241 17.5046 32.8976V29.1652C17.5046 27.6955 18.3744 26.3653 19.7204 25.7765C21.5246 24.9873 23.6591 23.9198 24.0605 21.7776C24.1901 21.0862 23.7393 20.4193 23.0496 20.2822C21.3058 19.9356 19.3725 20.0694 17.7377 20.8006C15.8818 21.6308 15.3963 23.0115 15.2166 24.866L14.9987 26.8638C14.9322 27.4744 14.3597 27.9421 13.7458 27.9421C13.1107 27.9421 12.6345 27.4584 12.5656 26.8268L12.3518 24.866C12.1979 23.2776 11.9188 21.7346 10.2767 21.0001C8.40361 20.1624 6.52125 19.8841 4.51879 20.2822C3.82914 20.4193 3.37829 21.0862 3.50787 21.7776C3.91283 23.9385 6.03051 24.9815 7.84801 25.7765C9.19397 26.3653 10.0638 27.6955 10.0638 29.1652V32.8969C10.0638 33.3234 9.71852 33.6691 9.29203 33.6691H4.97733C2.37969 33.6691 0.0453667 31.5863 0 28.9878V18.3395C0 17.319 0.667746 16.4187 1.6443 16.1226Z" fill="#FF9A0A"/>
<path d="M36.2012 29.5582V10.7969H44.9256C47.0016 10.7969 48.6033 11.2315 49.7308 12.1009C50.8582 12.9702 51.422 14.1588 51.422 15.6668C51.422 16.7845 51.0819 17.7337 50.4019 18.5143C49.7397 19.2949 48.827 19.8183 47.6638 20.0844V19.6586C49.0239 19.8893 50.0708 20.4038 50.8045 21.2021C51.5562 21.9827 51.932 23.0029 51.932 24.2625C51.932 25.9302 51.3325 27.2341 50.1334 28.1744C48.9523 29.097 47.3148 29.5582 45.2209 29.5582H36.2012ZM40.201 26.4713H44.7109C45.7489 26.4713 46.5452 26.2761 47.1 25.8858C47.6548 25.4955 47.9322 24.8746 47.9322 24.023C47.9322 23.1537 47.6548 22.5327 47.1 22.1601C46.5452 21.7698 45.7489 21.5747 44.7109 21.5747H40.201V26.4713ZM40.201 18.5143H44.174C45.2657 18.5143 46.071 18.3192 46.59 17.9289C47.109 17.5386 47.3685 16.9531 47.3685 16.1725C47.3685 15.4096 47.109 14.833 46.59 14.4427C46.071 14.0524 45.2657 13.8572 44.174 13.8572H40.201V18.5143Z" fill="white"/>
<path d="M54.5981 29.5591V19.6329C54.5981 19.0475 54.5802 18.4531 54.5445 17.8499C54.5266 17.2467 54.4818 16.6524 54.4102 16.0669H58.3026L58.759 20.0055H58.1416C58.3205 19.0475 58.6069 18.258 59.0006 17.637C59.4122 17.0161 59.9133 16.5548 60.5039 16.2532C61.1123 15.9516 61.8014 15.8008 62.5709 15.8008C62.9109 15.8008 63.1794 15.8185 63.3762 15.854C63.5731 15.8718 63.7699 15.9161 63.9668 15.9871L63.9399 19.5265C63.5641 19.3668 63.242 19.2692 62.9736 19.2337C62.723 19.1805 62.4009 19.1539 62.0072 19.1539C61.2555 19.1539 60.6292 19.2958 60.1281 19.5797C59.6449 19.8636 59.278 20.2805 59.0274 20.8305C58.7948 21.3804 58.6785 22.0457 58.6785 22.8263V29.5591H54.5981Z" fill="white"/>
<path d="M70.8188 29.8519C69.6376 29.8519 68.5997 29.568 67.7049 29.0003C66.81 28.4326 66.1121 27.6254 65.611 26.5786C65.1099 25.5319 64.8594 24.2723 64.8594 22.7997C64.8594 21.3449 65.1099 20.0942 65.611 19.0475C66.1121 18.0007 66.81 17.2024 67.7049 16.6524C68.5997 16.0847 69.6376 15.8008 70.8188 15.8008C71.9105 15.8008 72.8858 16.0669 73.7448 16.5992C74.6217 17.1137 75.1944 17.8144 75.4628 18.7015H75.1676L75.4897 16.0669H79.3821C79.3284 16.6524 79.2747 17.2467 79.221 17.8499C79.1853 18.4354 79.1674 19.012 79.1674 19.5797V29.5591H75.1407L75.1139 27.031H75.436C75.1497 27.8826 74.577 28.5656 73.718 29.0801C72.859 29.5946 71.8926 29.8519 70.8188 29.8519ZM72.0536 26.8181C72.9842 26.8181 73.7359 26.4899 74.3086 25.8335C74.8812 25.1771 75.1676 24.1658 75.1676 22.7997C75.1676 21.4337 74.8812 20.4313 74.3086 19.7926C73.7359 19.1539 72.9842 18.8346 72.0536 18.8346C71.123 18.8346 70.3714 19.1539 69.7987 19.7926C69.226 20.4313 68.9397 21.4337 68.9397 22.7997C68.9397 24.1658 69.2171 25.1771 69.7719 25.8335C70.3445 26.4899 71.1051 26.8181 72.0536 26.8181Z" fill="white"/>
<path d="M87.7798 29.8519C86.5986 29.8519 85.5606 29.568 84.6658 29.0003C83.771 28.4326 83.0731 27.6254 82.572 26.5786C82.0709 25.5319 81.8203 24.2723 81.8203 22.7997C81.8203 21.3449 82.0709 20.0942 82.572 19.0475C83.0731 18.0007 83.771 17.2024 84.6658 16.6524C85.5606 16.0847 86.5986 15.8008 87.7798 15.8008C88.8714 15.8008 89.8468 16.0669 90.7058 16.5992C91.5827 17.1137 92.1554 17.8144 92.4238 18.7015H92.1285L92.4507 16.0669H96.3431C96.2894 16.6524 96.2357 17.2467 96.182 17.8499C96.1462 18.4354 96.1283 19.012 96.1283 19.5797V29.5591H92.1017L92.0749 27.031H92.397C92.1106 27.8826 91.538 28.5656 90.6789 29.0801C89.8199 29.5946 88.8535 29.8519 87.7798 29.8519ZM89.0146 26.8181C89.9452 26.8181 90.6968 26.4899 91.2695 25.8335C91.8422 25.1771 92.1285 24.1658 92.1285 22.7997C92.1285 21.4337 91.8422 20.4313 91.2695 19.7926C90.6968 19.1539 89.9452 18.8346 89.0146 18.8346C88.084 18.8346 87.3324 19.1539 86.7597 19.7926C86.187 20.4313 85.9007 21.4337 85.9007 22.7997C85.9007 24.1658 86.1781 25.1771 86.7328 25.8335C87.3055 26.4899 88.0661 26.8181 89.0146 26.8181Z" fill="white"/>
<path d="M103.268 29.5586L97.3887 16.0664H101.657L105.55 25.8596H104.664L108.691 16.0664H112.69L106.758 29.5586H103.268Z" fill="white"/>
<path d="M120.235 29.8519C118.786 29.8519 117.524 29.568 116.45 29.0003C115.394 28.4148 114.571 27.5987 113.981 26.552C113.408 25.5053 113.121 24.2545 113.121 22.7997C113.121 21.3627 113.408 20.1208 113.981 19.0741C114.571 18.0273 115.394 17.2201 116.45 16.6524C117.524 16.0847 118.786 15.8008 120.235 15.8008C121.685 15.8008 122.946 16.0847 124.02 16.6524C125.094 17.2201 125.917 18.0273 126.49 19.0741C127.081 20.1208 127.376 21.3627 127.376 22.7997C127.376 24.2545 127.081 25.5053 126.49 26.552C125.917 27.5987 125.094 28.4148 124.02 29.0003C122.946 29.568 121.685 29.8519 120.235 29.8519ZM120.235 26.8181C121.166 26.8181 121.9 26.4899 122.436 25.8335C122.991 25.1771 123.269 24.1658 123.269 22.7997C123.269 21.4337 122.991 20.4313 122.436 19.7926C121.9 19.1539 121.166 18.8346 120.235 18.8346C119.305 18.8346 118.562 19.1539 118.007 19.7926C117.47 20.4313 117.202 21.4337 117.202 22.7997C117.202 24.1658 117.47 25.1771 118.007 25.8335C118.562 26.4899 119.305 26.8181 120.235 26.8181Z" fill="white"/>
<path d="M135.013 29.8519C133.796 29.8519 132.687 29.7188 131.685 29.4527C130.683 29.1866 129.832 28.814 129.135 28.335L130.181 25.6738C130.879 26.0996 131.649 26.4367 132.49 26.6851C133.349 26.9334 134.199 27.0576 135.04 27.0576C135.828 27.0576 136.409 26.9334 136.785 26.6851C137.161 26.4367 137.349 26.0996 137.349 25.6738C137.349 25.319 137.224 25.044 136.973 24.8488C136.74 24.6537 136.374 24.5118 135.872 24.4231L133.107 23.9174C131.944 23.6868 131.058 23.261 130.45 22.6401C129.841 22.0191 129.537 21.2119 129.537 20.2184C129.537 19.3491 129.77 18.5862 130.235 17.9298C130.718 17.2556 131.407 16.7322 132.302 16.3597C133.197 15.9871 134.244 15.8008 135.443 15.8008C136.463 15.8008 137.429 15.925 138.342 16.1734C139.255 16.4218 140.033 16.8032 140.678 17.3177L139.577 19.899C139.022 19.491 138.378 19.1628 137.644 18.9144C136.928 18.666 136.239 18.5418 135.577 18.5418C134.718 18.5418 134.101 18.6838 133.725 18.9676C133.349 19.2337 133.161 19.5797 133.161 20.0055C133.161 20.3248 133.269 20.5909 133.483 20.8038C133.716 21.0167 134.065 21.1764 134.53 21.2829L137.322 21.7885C138.521 22.0014 139.434 22.4006 140.06 22.986C140.687 23.5715 141 24.3787 141 25.4077C141 26.348 140.749 27.1463 140.248 27.8028C139.747 28.4592 139.04 28.9648 138.127 29.3196C137.233 29.6745 136.195 29.8519 135.013 29.8519Z" fill="white"/>
</svg>
