<svg width="17" height="15" viewBox="0 0 17 15" fill="none" xmlns="http://www.w3.org/2000/svg">
<path d="M12.206 12.9321C12.2507 13.0663 12.2403 13.2128 12.1771 13.3393C12.1138 13.4658 12.0029 13.562 11.8687 13.6068C11.7345 13.6515 11.588 13.6411 11.4615 13.5778C11.3349 13.5146 11.2387 13.4036 11.194 13.2694L10.6607 11.6694C10.6385 11.603 10.6297 11.5328 10.6346 11.463C10.6396 11.3931 10.6583 11.3249 10.6896 11.2622C10.7209 11.1996 10.7643 11.1437 10.8172 11.0978C10.8701 11.0519 10.9316 11.0169 10.998 10.9948C11.0644 10.9726 11.1346 10.9638 11.2045 10.9687C11.2743 10.9737 11.3425 10.9924 11.4052 11.0237C11.4678 11.055 11.5237 11.0984 11.5696 11.1513C11.6155 11.2042 11.6505 11.2657 11.6727 11.3321L12.206 12.9321ZM8.5 10.9674C8.35855 10.9674 8.2229 11.0236 8.12288 11.1237C8.02286 11.2237 7.96667 11.3593 7.96667 11.5008V13.6341C7.96667 13.7756 8.02286 13.9112 8.12288 14.0112C8.2229 14.1113 8.35855 14.1674 8.5 14.1674C8.64145 14.1674 8.77711 14.1113 8.87712 14.0112C8.97714 13.9112 9.03333 13.7756 9.03333 13.6341V11.5008C9.03333 11.3593 8.97714 11.2237 8.87712 11.1237C8.77711 11.0236 8.64145 10.9674 8.5 10.9674ZM6.002 10.9948C5.93555 10.9726 5.86539 10.9638 5.79552 10.9687C5.72565 10.9737 5.65745 10.9924 5.5948 11.0237C5.53215 11.055 5.47628 11.0984 5.43039 11.1513C5.3845 11.2042 5.34948 11.2657 5.32733 11.3321L4.794 12.9321C4.74927 13.0663 4.75968 13.2128 4.82294 13.3393C4.8862 13.4658 4.99713 13.562 5.13133 13.6068C5.26553 13.6515 5.41201 13.6411 5.53853 13.5778C5.66506 13.5146 5.76127 13.4036 5.806 13.2694L6.33933 11.6694C6.36149 11.603 6.37034 11.5328 6.36537 11.463C6.36041 11.3931 6.34173 11.3249 6.31041 11.2622C6.27908 11.1996 6.23572 11.1437 6.18281 11.0978C6.12989 11.0519 6.06845 11.0169 6.002 10.9948ZM16.5 6.16744C16.5 7.24877 15.6087 8.22677 13.99 8.92011C12.5147 9.55277 10.5667 9.90077 8.5 9.90077C6.43333 9.90077 4.48533 9.55277 3.01 8.92011C1.39133 8.22677 0.5 7.24877 0.5 6.16744C0.5 5.60944 0.744667 4.78144 1.91133 4.00077C2.66933 3.49344 3.70733 3.08344 4.92333 2.81078C5.26243 2.27351 5.71786 1.81926 6.25601 1.48156C6.79415 1.14386 7.40127 0.931333 8.03254 0.859663C8.66381 0.787993 9.30312 0.859012 9.90327 1.06748C10.5034 1.27595 11.0491 1.61654 11.5 2.06411C11.73 2.2917 11.9337 2.54439 12.1073 2.81744C14.862 3.44011 16.5 4.68344 16.5 6.16744ZM5.3 5.15611V5.35611C5.29932 5.47591 5.33941 5.59238 5.41367 5.6864C5.48793 5.78041 5.59196 5.84637 5.70867 5.87344C6.62519 6.07551 7.56149 6.17413 8.5 6.16744C9.43797 6.17499 10.3738 6.07727 11.29 5.87611C11.4069 5.84918 11.5112 5.78331 11.5857 5.68929C11.6602 5.59528 11.7005 5.47873 11.7 5.35878V5.10077C11.7 4.67693 11.6159 4.2573 11.4524 3.86625C11.2889 3.4752 11.0494 3.12053 10.7477 2.82281C10.446 2.5251 10.0882 2.29029 9.69503 2.132C9.30185 1.97372 8.88114 1.89512 8.45733 1.90078C6.71667 1.92344 5.3 3.38411 5.3 5.15611ZM15.4333 6.16744C15.4333 5.38744 14.3247 4.57478 12.64 4.06144C12.7243 4.40145 12.7668 4.75047 12.7667 5.10077V5.36211C12.7672 5.72298 12.645 6.07332 12.4202 6.35559C12.1953 6.63786 11.8812 6.83528 11.5293 6.91544C10.5347 7.13474 9.51852 7.24163 8.5 7.23411C7.48148 7.24158 6.46534 7.13468 5.47067 6.91544C5.11881 6.83528 4.80466 6.63786 4.57982 6.35559C4.35497 6.07332 4.23279 5.72298 4.23333 5.36211V5.15811C4.23344 4.78644 4.28117 4.41632 4.37533 4.05677C2.68133 4.56744 1.56667 5.38411 1.56667 6.16744C1.56667 7.42877 4.414 8.83411 8.5 8.83411C12.586 8.83411 15.4333 7.42877 15.4333 6.16744Z" fill="#0AE8F9"/>
</svg>
