<svg width="24" height="24" viewBox="0 0 24 24" fill="none" xmlns="http://www.w3.org/2000/svg">
<rect width="24" height="24" rx="12" fill="#FF5353" fill-opacity="0.2"/>
<path fill-rule="evenodd" clip-rule="evenodd" d="M15.763 15.7659C15.7341 15.7947 15.7036 15.8209 15.6717 15.8444C15.5424 15.9532 15.4133 16.0119 15.2553 15.9979C15.032 16.014 14.8032 15.9366 14.6324 15.7659L12 13.1334L9.37045 15.7629C9.21379 15.9196 9.00828 15.9976 8.80296 15.9971C8.59717 15.998 8.3911 15.92 8.23409 15.7629C8.20517 15.734 8.17893 15.7034 8.15537 15.6715C8.04679 15.5424 7.98817 15.4134 8.00204 15.2557C7.98587 15.0322 8.06322 14.8032 8.23409 14.6324L10.8665 12L8.23702 9.37045C8.08227 9.21569 8.00422 9.01328 8.00289 8.81045C8.00004 8.6022 8.07807 8.39305 8.23697 8.23415C8.26583 8.20529 8.29634 8.1791 8.32821 8.15557C8.45753 8.04678 8.58666 7.98807 8.74463 8.00207C8.96797 7.98603 9.19676 8.06339 9.36752 8.23415L11.9999 10.8666L14.6295 8.23698C14.7861 8.08034 14.9916 8.00229 15.1969 8.00284C15.4027 8.00191 15.6088 8.07995 15.7659 8.23698C15.7948 8.2659 15.821 8.29648 15.8446 8.32842C15.9531 8.45755 16.0118 8.58652 15.9979 8.74423C16.0141 8.9677 15.9367 9.19667 15.7659 9.36754L13.1334 12L15.7629 14.6296C15.9177 14.7844 15.9958 14.9869 15.9971 15.1898C15.9998 15.398 15.9218 15.607 15.763 15.7659Z" fill="#FF5353"/>
<path d="M15.6717 15.8444L15.6122 15.7638L15.6074 15.7679L15.6717 15.8444ZM15.2553 15.9979L15.2641 15.8983C15.2588 15.8979 15.2535 15.8978 15.2481 15.8982L15.2553 15.9979ZM14.6324 15.7659L14.5617 15.8366L14.6324 15.7659ZM12 13.1334L12.0707 13.0627C12.0316 13.0236 11.9683 13.0236 11.9293 13.0627L12 13.1334ZM9.37045 15.7629L9.29974 15.6922H9.29974L9.37045 15.7629ZM8.80296 15.9971L8.80323 15.8971L8.80251 15.8971L8.80296 15.9971ZM8.23409 15.7629L8.16338 15.8337L8.16338 15.8337L8.23409 15.7629ZM8.15537 15.6715L8.23601 15.612L8.23191 15.6071L8.15537 15.6715ZM8.00204 15.2557L8.10166 15.2644C8.10212 15.2591 8.10216 15.2538 8.10178 15.2485L8.00204 15.2557ZM8.23409 14.6324L8.16338 14.5617H8.16338L8.23409 14.6324ZM10.8665 12L10.9372 12.0707C10.9763 12.0316 10.9763 11.9683 10.9372 11.9292L10.8665 12ZM8.23702 9.37045L8.30773 9.29974L8.30773 9.29974L8.23702 9.37045ZM8.00289 8.81045L8.10289 8.80979L8.10288 8.80908L8.00289 8.81045ZM8.23697 8.23415L8.30768 8.30486L8.30768 8.30486L8.23697 8.23415ZM8.32821 8.15557L8.38772 8.23619L8.39259 8.2321L8.32821 8.15557ZM8.74463 8.00207L8.73581 8.10168C8.74112 8.10215 8.74647 8.1022 8.7518 8.10181L8.74463 8.00207ZM9.36752 8.23415L9.43823 8.16344V8.16344L9.36752 8.23415ZM11.9999 10.8666L11.9292 10.9373C11.948 10.956 11.9734 10.9666 11.9999 10.9666C12.0264 10.9666 12.0519 10.956 12.0706 10.9373L11.9999 10.8666ZM14.6295 8.23698L14.7002 8.30769V8.30769L14.6295 8.23698ZM15.1969 8.00284L15.1967 8.10284L15.1974 8.10284L15.1969 8.00284ZM15.7659 8.23698L15.6951 8.30769V8.30769L15.7659 8.23698ZM15.8446 8.32842L15.7639 8.3879L15.768 8.39277L15.8446 8.32842ZM15.9979 8.74423L15.8983 8.73547C15.8978 8.74079 15.8978 8.74613 15.8982 8.75145L15.9979 8.74423ZM15.7659 9.36754L15.8366 9.43825L15.7659 9.36754ZM13.1334 12L13.0627 11.9293C13.0236 11.9684 13.0236 12.0317 13.0627 12.0707L13.1334 12ZM15.7629 14.6296L15.6922 14.7003L15.7629 14.6296ZM15.9971 15.1898L15.8971 15.1904L15.8971 15.1911L15.9971 15.1898ZM15.7311 15.9249C15.767 15.8984 15.8013 15.869 15.8337 15.8366L15.6923 15.6951C15.6669 15.7205 15.6402 15.7434 15.6123 15.764L15.7311 15.9249ZM15.2465 16.0975C15.4396 16.1147 15.5942 16.0403 15.7361 15.921L15.6074 15.7679C15.4906 15.8661 15.3869 15.9092 15.2641 15.8983L15.2465 16.0975ZM14.5617 15.8366C14.7538 16.0287 15.0114 16.1157 15.2625 16.0977L15.2481 15.8982C15.0525 15.9122 14.8525 15.8445 14.7031 15.6951L14.5617 15.8366ZM11.9293 13.2041L14.5617 15.8366L14.7031 15.6951L12.0707 13.0627L11.9293 13.2041ZM9.44116 15.8336L12.0707 13.2041L11.9293 13.0627L9.29974 15.6922L9.44116 15.8336ZM8.80268 16.0971C9.03354 16.0977 9.26492 16.0099 9.44116 15.8336L9.29974 15.6922C9.16266 15.8293 8.98303 15.8976 8.80323 15.8971L8.80268 16.0971ZM8.16338 15.8337C8.34001 16.0103 8.57204 16.0981 8.8034 16.0971L8.80251 15.8971C8.62231 15.8979 8.44219 15.8296 8.3048 15.6922L8.16338 15.8337ZM8.0749 15.7309C8.10142 15.7668 8.13092 15.8012 8.16338 15.8337L8.3048 15.6922C8.27943 15.6669 8.25645 15.6401 8.23585 15.6121L8.0749 15.7309ZM7.90242 15.2469C7.88547 15.4398 7.9597 15.5942 8.07883 15.7359L8.23191 15.6071C8.13389 15.4906 8.09088 15.387 8.10166 15.2644L7.90242 15.2469ZM8.16338 14.5617C7.97113 14.7539 7.88413 15.0117 7.9023 15.2629L8.10178 15.2485C8.08762 15.0527 8.15532 14.8526 8.3048 14.7031L8.16338 14.5617ZM10.7958 11.9292L8.16338 14.5617L8.3048 14.7031L10.9372 12.0707L10.7958 11.9292ZM8.16631 9.44116L10.7958 12.0707L10.9372 11.9292L8.30773 9.29974L8.16631 9.44116ZM7.90289 8.8111C7.90439 9.03916 7.99222 9.26707 8.16631 9.44116L8.30773 9.29974C8.17231 9.16432 8.10406 8.9874 8.10289 8.80979L7.90289 8.8111ZM8.16625 8.16344C7.98749 8.3422 7.8997 8.57769 7.9029 8.81182L8.10288 8.80908C8.10039 8.62671 8.16864 8.4439 8.30768 8.30486L8.16625 8.16344ZM8.26882 8.07512C8.23296 8.1016 8.19865 8.13104 8.16625 8.16344L8.30768 8.30486C8.333 8.27954 8.35973 8.2566 8.3876 8.23603L8.26882 8.07512ZM8.75346 7.90246C8.56032 7.88535 8.40571 7.95969 8.26384 8.07905L8.39259 8.2321C8.50935 8.13387 8.613 8.0908 8.73581 8.10168L8.75346 7.90246ZM9.43823 8.16344C9.2461 7.97131 8.98852 7.8843 8.73747 7.90233L8.7518 8.10181C8.94743 8.08777 9.14743 8.15548 9.29681 8.30486L9.43823 8.16344ZM12.0706 10.7958L9.43823 8.16344L9.29681 8.30486L11.9292 10.9373L12.0706 10.7958ZM14.5588 8.16627L11.9292 10.7958L12.0706 10.9373L14.7002 8.30769L14.5588 8.16627ZM15.1972 7.90284C14.9664 7.90222 14.735 7.99005 14.5588 8.16627L14.7002 8.30769C14.8373 8.17062 15.0169 8.10236 15.1967 8.10284L15.1972 7.90284ZM15.8366 8.16627C15.6599 7.98962 15.4279 7.90179 15.1965 7.90284L15.1974 8.10284C15.3776 8.10202 15.5577 8.17029 15.6951 8.30769L15.8366 8.16627ZM15.925 8.26905C15.8985 8.23311 15.869 8.19873 15.8366 8.16627L15.6951 8.30769C15.7205 8.33306 15.7435 8.35985 15.7641 8.38778L15.925 8.26905ZM16.0975 8.75299C16.1145 8.56016 16.0402 8.40575 15.9211 8.26406L15.768 8.39277C15.8661 8.50935 15.9091 8.61288 15.8983 8.73547L16.0975 8.75299ZM15.8366 9.43825C16.0288 9.24599 16.1158 8.98821 16.0976 8.73702L15.8982 8.75145C15.9123 8.94719 15.8446 9.14735 15.6951 9.29683L15.8366 9.43825ZM13.2041 12.0707L15.8366 9.43825L15.6951 9.29683L13.0627 11.9293L13.2041 12.0707ZM15.8336 14.5588L13.2041 11.9293L13.0627 12.0707L15.6922 14.7003L15.8336 14.5588ZM16.0971 15.1892C16.0956 14.961 16.0078 14.733 15.8336 14.5588L15.6922 14.7003C15.8277 14.8357 15.8959 15.0127 15.8971 15.1904L16.0971 15.1892ZM15.8337 15.8366C16.0124 15.6579 16.1002 15.4225 16.097 15.1885L15.8971 15.1911C15.8995 15.3734 15.8313 15.5562 15.6923 15.6951L15.8337 15.8366Z" fill="#3D2249"/>
</svg>
