<svg width="251" height="73" viewBox="0 0 251 73" fill="none" xmlns="http://www.w3.org/2000/svg">
<g id="Horizontal STRK logo-1" clip-path="url(#clip0_4795_4764)">
<path id="Vector" d="M1.47362 36.9118C1.47362 56.2096 17.1171 71.8531 36.4148 71.8531C55.7125 71.8531 71.3573 56.2095 71.3573 36.9118C71.3573 17.6143 55.7125 1.9707 36.4148 1.9707C17.1171 1.9707 1.47362 17.6142 1.47362 36.9118Z" fill="#0C0C4F" stroke="#EC796B" stroke-width="2.11663"/>
<path id="Vector_2" fill-rule="evenodd" clip-rule="evenodd" d="M20.5361 28.4314L21.4248 25.686C21.6054 25.1276 22.0461 24.6931 22.6066 24.5217L25.3655 23.6733C25.7474 23.5567 25.7505 23.0179 25.3717 22.8951L22.6251 22.0064C22.0678 21.8257 21.6333 21.385 21.4609 20.8246L20.6135 18.0657C20.4969 17.6848 19.9581 17.6807 19.8353 18.0605L18.9466 20.806C18.766 21.3634 18.3253 21.7979 17.7648 21.9702L15.0059 22.8176C14.624 22.9353 14.6198 23.4731 14.9997 23.5959L17.7462 24.4846C18.3036 24.6652 18.7381 25.1069 18.9105 25.6674L19.7578 28.4253C19.8745 28.8072 20.4133 28.8113 20.5361 28.4314Z" fill="#FAFAFA"/>
<path id="Vector_3" fill-rule="evenodd" clip-rule="evenodd" d="M64.1438 26.8326C63.0064 25.5607 61.231 24.8446 59.5053 24.5509C57.7657 24.2689 55.9419 24.2951 54.2245 24.6001C50.75 25.1879 47.5933 26.6266 44.8401 28.4015C43.4104 29.2726 42.1912 30.2805 40.928 31.307C40.3193 31.8261 39.7644 32.379 39.1865 32.9239L37.6074 34.4951C35.8916 36.2885 34.2004 37.9221 32.5641 39.2761C30.9212 40.6239 29.3852 41.6475 27.8714 42.3623C26.3586 43.0809 24.74 43.5035 22.6302 43.5712C20.5389 43.6449 18.0647 43.2675 15.4181 42.6444C12.7572 42.0242 9.96309 41.1401 6.84073 40.3794C7.93019 43.4018 9.57081 46.0728 11.6772 48.5144C13.8082 50.9136 16.4693 53.1004 19.8877 54.5385C23.2568 56.0085 27.4907 56.5361 31.4495 55.74C35.4188 54.976 38.9021 53.1393 41.7177 51.0151C44.5404 48.8691 46.8242 46.4247 48.7495 43.8833C49.281 43.1812 49.5621 42.7882 49.9467 42.2394L51.0096 40.6648C51.7485 39.6908 52.4209 38.5818 53.1522 37.6168C54.5858 35.5956 55.9992 33.5769 57.6417 31.717C58.4683 30.7736 59.3397 29.8713 60.3689 29.0042C60.8822 28.5809 61.4364 28.1667 62.0509 27.7936C62.6745 27.3911 63.3328 27.0761 64.1438 26.8326Z" fill="url(#paint0_linear_4795_4764)"/>
<path id="Vector_4" fill-rule="evenodd" clip-rule="evenodd" d="M64.1438 26.8332C62.9216 23.75 60.65 21.1546 57.6012 19.2394C54.5707 17.3453 50.3617 16.3786 46.191 17.2026C44.1305 17.6011 42.1343 18.3683 40.3825 19.39C38.6386 20.4076 37.0759 21.6326 35.7231 22.9468C35.0478 23.6062 34.4347 24.2939 33.8257 24.9855L32.2473 26.9979L29.8094 30.2374C26.7014 34.4054 23.3545 39.29 17.8622 40.7373C12.4702 42.1582 10.1316 40.8998 6.84073 40.38C7.44242 41.9335 8.1878 43.4422 9.1983 44.7694C10.1899 46.1235 11.3612 47.3954 12.8175 48.4856C13.5533 49.0092 14.3303 49.5259 15.1932 49.9642C16.0522 50.3876 16.9786 50.7603 17.9674 51.041C19.9341 51.58 22.1484 51.7688 24.2923 51.4789C26.4372 51.1927 28.4874 50.5129 30.2795 49.6102C32.0848 48.7159 33.6574 47.6268 35.0616 46.4774C37.853 44.1594 40.0242 41.598 41.8582 39.009C42.7808 37.7146 43.6181 36.3957 44.3926 35.0764L45.3041 33.5059C45.5828 33.0468 45.8646 32.5848 46.1509 32.1546C47.3058 30.4261 48.4355 29.0403 49.8076 28C51.1608 26.9329 53.0448 26.1444 55.5626 25.9612C58.07 25.7759 60.9645 26.1183 64.1438 26.8332Z" fill="#FAFAFA"/>
<path id="Vector_5" fill-rule="evenodd" clip-rule="evenodd" d="M50.5788 52.4499C50.5788 54.7145 52.4155 56.5511 54.6801 56.5511C56.9446 56.5511 58.7791 54.7145 58.7791 52.4499C58.7791 50.1854 56.9446 48.3486 54.6801 48.3486C52.4155 48.3486 50.5788 50.1854 50.5788 52.4499Z" fill="url(#paint1_linear_4795_4764)"/>
<g id="Clip path group">
<mask id="mask0_4795_4764" style="mask-type:luminance" maskUnits="userSpaceOnUse" x="87" y="11" width="164" height="51">
<g id="clip0_623_1239">
<path id="Vector_6" d="M250.316 11.895H87.0593V61.9289H250.316V11.895Z" fill="white"/>
</g>
</mask>
<g mask="url(#mask0_4795_4764)">
<g id="Group">
<path id="Vector_7" d="M247.73 13.7881H239.4L239.04 14.2079C237.98 15.4341 236.655 16.8935 235.088 18.5395C233.556 20.1523 231.896 21.8849 230.143 23.6709C228.418 25.4369 226.625 27.2562 224.819 29.0622C223.813 30.0418 222.846 30.9814 221.927 31.8611V13.7881H214.37C213.763 13.7881 213.27 14.2812 213.27 14.8877V59.6902C213.27 60.2967 213.763 60.7898 214.37 60.7898H221.927V40.6643C223.086 41.4773 224.279 42.3903 225.472 43.3966L225.492 43.4099C227.378 44.9626 229.244 46.682 231.043 48.5213V48.5346L231.07 48.5479C232.896 50.3339 234.655 52.2598 236.281 54.259L236.295 54.279L236.335 54.319C237.961 56.2849 239.42 58.2708 240.673 60.23L241.026 60.7898H249.209C249.61 60.7898 249.963 60.5832 250.163 60.2433C250.363 59.8968 250.363 59.4903 250.163 59.1438L250.069 58.9838C248.89 56.9246 247.384 54.7388 245.598 52.4731C243.872 50.2339 241.992 47.9948 240 45.8357C238.014 43.6764 235.955 41.6172 233.883 39.718C232.223 38.1986 230.617 36.8524 229.084 35.7129C230.37 34.4534 231.737 33.1006 233.149 31.6878C234.949 29.8885 236.768 28.0426 238.561 26.2099C240.386 24.3373 242.166 22.498 243.832 20.7454L243.852 20.7187C245.511 18.9261 247.031 17.28 248.356 15.8206L248.523 15.6407C248.816 15.3208 248.896 14.8544 248.716 14.4545C248.543 14.0546 248.143 13.7947 247.71 13.7947L247.73 13.7881Z" fill="white"/>
<path id="Vector_8" d="M179.09 13.4476H172.346C171.74 13.4476 171.247 13.9407 171.247 14.5472V59.7162C171.247 60.3227 171.74 60.8158 172.346 60.8158H179.224V44.209H187.314C188.247 45.3419 189.18 46.5347 190.072 47.7675V47.7809L190.093 47.7942C191.652 49.8401 193.118 52.0059 194.444 54.2384C195.651 56.2176 196.71 58.1902 197.61 60.1161L197.756 60.4293L197.936 60.8158H205.707C206.08 60.8158 206.426 60.6292 206.633 60.3094C206.833 59.9961 206.866 59.603 206.706 59.2631C205.8 57.2772 204.88 55.4779 203.901 53.7786C202.521 51.3129 200.982 48.8272 199.329 46.4014C198.563 45.2752 197.77 44.1623 196.97 43.0827C199.442 42.1564 201.435 40.6437 202.908 38.5845C204.861 35.8255 205.847 32.5468 205.847 28.8282C205.847 26.2825 205.393 23.9302 204.5 21.831C203.594 19.6718 202.208 17.8592 200.382 16.4464C198.582 15.0336 196.344 14.1139 193.711 13.7074C193.118 13.6008 192.478 13.5275 191.825 13.5075C191.226 13.4675 190.672 13.4409 190.213 13.4409H179.084L179.09 13.4476ZM190.033 21.1446C190.393 21.1446 190.813 21.1646 191.272 21.2045H191.312C191.752 21.2245 192.152 21.2845 192.519 21.3845H192.538L192.572 21.3978C193.791 21.6644 194.738 22.1442 195.464 22.8705L195.484 22.8972L195.504 22.9172C196.25 23.6569 196.79 24.4966 197.15 25.4762V25.5162L197.203 25.6228C197.563 26.6624 197.75 27.7487 197.75 28.8416C197.75 29.9345 197.563 31.0541 197.19 32.127C196.837 33.1266 196.271 34.0196 195.491 34.7793C194.764 35.4923 193.778 35.9988 192.565 36.2787C192.165 36.372 191.732 36.432 191.272 36.472C190.806 36.5119 190.386 36.5319 190.026 36.5319H179.217V21.1446H190.033Z" fill="white"/>
<path id="Vector_9" d="M164.349 13.7881H129.843C129.236 13.7881 128.743 14.2812 128.743 14.8877V21.6117H142.764V59.6902C142.764 60.2967 143.258 60.7898 143.864 60.7898H150.322C150.928 60.7898 151.421 60.2967 151.421 59.6902V21.6117H165.442V14.8943C165.442 14.2879 164.949 13.7947 164.343 13.7947L164.349 13.7881Z" fill="white"/>
<path id="Vector_10" d="M105.872 11.895C102.766 11.895 99.9275 12.4282 97.4215 13.4811C94.8161 14.5807 92.7104 16.2 91.171 18.2925C89.6248 20.4051 88.8383 22.9708 88.8383 25.9362C88.8383 27.7888 89.1513 29.4415 89.7645 30.841C90.3777 32.2138 91.2173 33.4133 92.2571 34.4063C93.2766 35.3593 94.4427 36.1656 95.7289 36.8054C96.9816 37.4118 98.2813 37.9116 99.6078 38.3115L111.269 41.7768C112.042 41.9967 112.783 42.2699 113.482 42.6031C114.135 42.9096 114.722 43.2962 115.228 43.7426H115.235L115.262 43.7693C115.741 44.1625 116.101 44.6357 116.361 45.2154L116.374 45.2487C116.647 45.7952 116.788 46.4949 116.788 47.3146C116.788 48.6941 116.394 49.847 115.595 50.8399C114.761 51.8728 113.589 52.6925 112.122 53.2656C110.623 53.8454 108.897 54.1386 107.005 54.1386C104.093 54.1386 101.533 53.3989 99.4009 51.9395C97.3019 50.4734 95.9553 48.4808 95.2823 45.8685C95.1425 45.3354 94.6629 44.9622 94.1095 44.9622C94.0497 44.9622 93.9832 44.9622 93.9228 44.9755L88.0786 45.8952C87.7589 45.9485 87.4654 46.1284 87.2787 46.3883C87.0926 46.6549 87.0188 46.9881 87.0724 47.3079C87.6124 50.2935 88.7986 52.9257 90.5974 55.1316C92.4169 57.3174 94.7295 59.0101 97.4752 60.1829C100.22 61.3425 103.326 61.9289 106.718 61.9289C109.197 61.9289 111.556 61.6024 113.729 60.956C115.928 60.3295 117.887 59.3899 119.566 58.1704C121.286 56.8909 122.632 55.2982 123.585 53.4189C124.558 51.5463 125.051 49.3805 125.051 46.9947C125.051 44.609 124.591 42.5565 123.691 40.9437C122.805 39.331 121.659 38.0249 120.286 37.0519C118.98 36.1056 117.6 35.3593 116.195 34.8395C114.882 34.3463 113.689 33.9465 112.669 33.6666L103.972 31.1609C102.893 30.8543 101.773 30.4678 100.64 30.0013C99.6474 29.5682 98.7877 28.9751 98.1013 28.2554C97.5149 27.6223 97.222 26.7759 97.222 25.6897C97.222 24.6034 97.568 23.5771 98.2813 22.7108C99.0409 21.7645 100.087 21.0248 101.394 20.4917C102.693 19.9586 104.179 19.692 105.799 19.692H105.972C107.744 19.712 109.384 20.0585 110.85 20.725C112.302 21.3647 113.515 22.2977 114.468 23.4906C115.441 24.6701 116.068 26.0895 116.348 27.7356C116.401 28.0554 116.581 28.3353 116.841 28.5219C117.048 28.6685 117.287 28.7418 117.541 28.7418C117.607 28.7418 117.68 28.7418 117.747 28.7218L123.752 27.6756C124.071 27.6223 124.358 27.4357 124.538 27.1691C124.717 26.9026 124.791 26.5694 124.724 26.2494C124.138 23.2973 122.965 20.7116 121.239 18.5791C119.54 16.4466 117.354 14.7872 114.749 13.6543C112.216 12.5081 109.291 11.915 106.065 11.895H105.872Z" fill="white"/>
</g>
</g>
</g>
</g>
<defs>
<linearGradient id="paint0_linear_4795_4764" x1="63.8368" y1="25.7507" x2="-29.8097" y2="74.4735" gradientUnits="userSpaceOnUse">
<stop stop-color="#EC796B"/>
<stop offset="1" stop-color="#D672EF"/>
</linearGradient>
<linearGradient id="paint1_linear_4795_4764" x1="58.7763" y1="49.5728" x2="43.8312" y2="50.9738" gradientUnits="userSpaceOnUse">
<stop stop-color="#EC796B"/>
<stop offset="1" stop-color="#D672EF"/>
</linearGradient>
<clipPath id="clip0_4795_4764">
<rect width="250.17" height="72" fill="white" transform="translate(0.415245 0.912598)"/>
</clipPath>
</defs>
</svg>
