<svg viewBox="0 0 25 24" fill="none" xmlns="http://www.w3.org/2000/svg">
<path d="M6.27173 10C5.17173 10 4.27173 10.9 4.27173 12C4.27173 13.1 5.17173 14 6.27173 14C7.37173 14 8.27173 13.1 8.27173 12C8.27173 10.9 7.37173 10 6.27173 10ZM18.2717 10C17.1717 10 16.2717 10.9 16.2717 12C16.2717 13.1 17.1717 14 18.2717 14C19.3717 14 20.2717 13.1 20.2717 12C20.2717 10.9 19.3717 10 18.2717 10ZM12.2717 10C11.1717 10 10.2717 10.9 10.2717 12C10.2717 13.1 11.1717 14 12.2717 14C13.3717 14 14.2717 13.1 14.2717 12C14.2717 10.9 13.3717 10 12.2717 10Z" fill="currentColor"/>
</svg>
