<svg viewBox="0 0 16 17" fill="none" xmlns="http://www.w3.org/2000/svg">
<path fill-rule="evenodd" clip-rule="evenodd" d="M11.9378 7.37532C11.9378 8.04012 11.8069 8.69844 11.5524 9.31265C11.298 9.92686 10.9251 10.4849 10.4551 10.9551C9.98494 11.4251 9.42686 11.798 8.81265 12.0525C8.19844 12.3069 7.54014 12.4378 6.87532 12.4378C6.2105 12.4378 5.55219 12.3069 4.93798 12.0525C4.32377 11.798 3.76568 11.4251 3.29559 10.9551C2.82549 10.4849 2.45259 9.92686 2.19817 9.31265C1.94376 8.69844 1.81282 8.04012 1.81282 7.37532C1.81282 6.03265 2.34618 4.74499 3.29559 3.79559C4.24499 2.84618 5.53265 2.31282 6.87532 2.31282C8.21797 2.31282 9.50563 2.84618 10.4551 3.79559C11.4045 4.74499 11.9378 6.03265 11.9378 7.37532ZM11.0153 12.7078C9.65899 13.7608 7.95236 14.2573 6.24284 14.0962C4.53333 13.9352 2.94945 13.1287 1.81366 11.8409C0.67786 10.5531 0.0755355 8.88089 0.129288 7.16466C0.183052 5.44842 0.888854 3.81717 2.10301 2.60301C3.31718 1.38885 4.94842 0.683052 6.66466 0.629288C8.3809 0.575533 10.0531 1.17786 11.3409 2.31366C12.6287 3.44945 13.4352 5.03333 13.5962 6.74284C13.7573 8.45235 13.2608 10.159 12.2078 11.5153L15.6278 14.9353C15.7107 15.0126 15.7772 15.1058 15.8234 15.2093C15.8695 15.3128 15.8942 15.4245 15.8963 15.5378C15.8983 15.651 15.8774 15.7635 15.8349 15.8686C15.7925 15.9737 15.7293 16.0691 15.6492 16.1492C15.5691 16.2294 15.4737 16.2925 15.3686 16.3349C15.2636 16.3773 15.1511 16.3983 15.0378 16.3962C14.9245 16.3942 14.8127 16.3695 14.7093 16.3233C14.6058 16.2772 14.5126 16.2107 14.4353 16.1278L11.0153 12.7078Z" fill="currentColor"/>
</svg>
