<svg viewBox="0 0 60 60" fill="none" xmlns="http://www.w3.org/2000/svg">
<g opacity="0.45">
<path d="M43.0289 50.032C43.1862 50.5038 43.1496 51.0188 42.9272 51.4636C42.7048 51.9084 42.3148 52.2466 41.843 52.4039C41.3712 52.5612 40.8562 52.5246 40.4114 52.3022C39.9666 52.0798 39.6284 51.6898 39.4711 51.218L37.5961 45.593C37.5182 45.3594 37.4871 45.1127 37.5046 44.8671C37.522 44.6214 37.5877 44.3817 37.6978 44.1614C37.808 43.9412 37.9604 43.7448 38.1464 43.5834C38.3324 43.4221 38.5484 43.299 38.782 43.2211C39.0156 43.1432 39.2623 43.1121 39.5079 43.1296C39.7536 43.147 39.9933 43.2127 40.2136 43.3228C40.4338 43.433 40.6302 43.5854 40.7916 43.7714C40.9529 43.9574 41.076 44.1734 41.1539 44.407L43.0289 50.032ZM30 43.125C29.5027 43.125 29.0258 43.3225 28.6742 43.6742C28.3225 44.0258 28.125 44.5027 28.125 45V52.5C28.125 52.9973 28.3225 53.4742 28.6742 53.8258C29.0258 54.1775 29.5027 54.375 30 54.375C30.4973 54.375 30.9742 54.1775 31.3258 53.8258C31.6775 53.4742 31.875 52.9973 31.875 52.5V45C31.875 44.5027 31.6775 44.0258 31.3258 43.6742C30.9742 43.3225 30.4973 43.125 30 43.125ZM21.218 43.2211C20.9844 43.1432 20.7377 43.1121 20.4921 43.1295C20.2464 43.147 20.0066 43.2127 19.7864 43.3228C19.5661 43.4329 19.3697 43.5853 19.2084 43.7714C19.0471 43.9574 18.924 44.1734 18.8461 44.407L16.9711 50.032C16.8138 50.5038 16.8504 51.0188 17.0728 51.4636C17.2952 51.9084 17.6852 52.2466 18.157 52.4039C18.6288 52.5612 19.1438 52.5246 19.5886 52.3022C20.0334 52.0798 20.3716 51.6898 20.5289 51.218L22.4039 45.593C22.4818 45.3594 22.5129 45.1127 22.4955 44.8671C22.478 44.6214 22.4123 44.3816 22.3022 44.1614C22.1921 43.9411 22.0397 43.7447 21.8536 43.5834C21.6676 43.4221 21.4516 43.299 21.218 43.2211ZM58.125 26.25C58.125 30.0516 54.9914 33.4898 49.3008 35.9273C44.1141 38.1516 37.2656 39.375 30 39.375C22.7344 39.375 15.8859 38.1516 10.6992 35.9273C5.00859 33.4898 1.875 30.0516 1.875 26.25C1.875 24.2883 2.73516 21.3773 6.83672 18.6328C9.50156 16.8492 13.1508 15.4078 17.4258 14.4492C18.6179 12.5604 20.219 10.9634 22.111 9.77621C24.0029 8.58898 26.1373 7.8418 28.3566 7.58984C30.5759 7.33788 32.8235 7.58755 34.9334 8.32044C37.0433 9.05333 38.9616 10.2507 40.5469 11.8242C41.3555 12.6243 42.0717 13.5127 42.682 14.4727C52.3664 16.6617 58.125 21.0328 58.125 26.25ZM18.75 22.6945V23.3977C18.7476 23.8188 18.8885 24.2283 19.1496 24.5588C19.4107 24.8893 19.7764 25.1212 20.1867 25.2164C23.4089 25.9268 26.7005 26.2735 30 26.25C33.2975 26.2765 36.5877 25.933 39.8086 25.2258C40.2196 25.1311 40.5861 24.8995 40.848 24.569C41.11 24.2385 41.2517 23.8287 41.25 23.407V22.5C41.2501 21.0099 40.9543 19.5347 40.3795 18.1599C39.8048 16.7851 38.9627 15.5382 37.9021 14.4915C36.8415 13.4449 35.5835 12.6194 34.2013 12.0629C32.819 11.5065 31.3399 11.2301 29.85 11.25C23.7305 11.3297 18.75 16.4648 18.75 22.6945ZM54.375 26.25C54.375 23.5078 50.4773 20.6508 44.5547 18.8461C44.851 20.0415 45.0005 21.2685 45 22.5V23.4187C45.0019 24.6875 44.5724 25.9191 43.7819 26.9115C42.9914 27.9038 41.887 28.5979 40.65 28.8797C37.1531 29.6507 33.5807 30.0265 30 30C26.4193 30.0263 22.8469 29.6505 19.35 28.8797C18.113 28.5979 17.0086 27.9038 16.2181 26.9115C15.4276 25.9191 14.9981 24.6875 15 23.4187V22.7016C15.0004 21.3949 15.1682 20.0937 15.4992 18.8297C9.54375 20.625 5.625 23.4961 5.625 26.25C5.625 30.6844 15.6352 35.625 30 35.625C44.3648 35.625 54.375 30.6844 54.375 26.25Z" fill="currentColor"/>
</g>
</svg>
