<svg width="242" height="36" viewBox="0 0 242 36" fill="none" xmlns="http://www.w3.org/2000/svg">
<path d="M241.782 6.16692V1.71328C241.782 1.53671 241.639 1.39355 241.463 1.39355H216.087C215.91 1.39355 215.767 1.53671 215.767 1.71328V6.16692H226.08V34.9786H231.469V6.16692H241.782Z" fill="white"/>
<path d="M189.246 1.39355C189.069 1.39355 188.926 1.53671 188.926 1.71328V34.659C188.926 34.8355 189.069 34.9786 189.246 34.9786H210.6C210.777 34.9786 210.92 34.8355 210.92 34.659V30.2527H194.314V19.6976H208.034V15.0661H194.314V6.11958H209.737V1.71328C209.737 1.53671 209.594 1.39355 209.417 1.39355H189.246Z" fill="white"/>
<path d="M176.861 34.783L176.978 34.9786H181.117C181.294 34.9786 181.437 34.8355 181.437 34.659V1.71328C181.437 1.53671 181.294 1.39355 181.117 1.39355H176.143V24.653C175.279 23.2782 174.277 21.7648 173.135 20.113C171.681 17.9634 170.116 15.7828 168.442 13.5712C166.799 11.3281 165.125 9.16371 163.418 7.07793C161.742 4.95898 160.158 3.10584 158.667 1.5195L158.549 1.39355H154.653C154.476 1.39355 154.333 1.53671 154.333 1.71328V34.659C154.333 34.8355 154.476 34.9786 154.653 34.9786H159.627V10.0616C160.307 10.8648 161.031 11.7549 161.799 12.7322C162.836 14.0527 163.906 15.4681 165.007 16.9786L165.008 16.9802L165.01 16.9818C166.11 18.4599 167.211 20.0011 168.312 21.6056L168.314 21.6078L168.315 21.61C169.449 23.2153 170.534 24.8046 171.573 26.378L171.573 26.3795L171.575 26.3811C172.612 27.9219 173.571 29.4147 174.451 30.8599L174.452 30.8629L174.454 30.8653C175.367 32.314 176.17 33.6201 176.861 34.783Z" fill="white"/>
<path d="M147.825 2.06251L147.947 1.92872C148.135 1.72343 147.989 1.39355 147.711 1.39355H141.812L141.692 1.53225C140.909 2.44066 139.936 3.5081 138.772 4.73521C137.638 5.93208 136.425 7.19251 135.133 8.51592C133.842 9.83889 132.534 11.1619 131.211 12.4849C130.153 13.5179 129.166 14.47 128.249 15.3413V1.39355H123.18C123.004 1.39355 122.861 1.53671 122.861 1.71328V34.659C122.861 34.8355 123.004 34.9786 123.18 34.9786H128.249V19.7424C129.361 20.4709 130.499 21.3232 131.661 22.3004L131.663 22.3018L131.664 22.3033C133.072 23.4605 134.449 24.728 135.795 26.106L135.798 26.1093L135.802 26.1125C137.178 27.4578 138.477 28.8815 139.698 30.3841L139.699 30.3855L139.7 30.387C140.921 31.8577 141.999 33.327 142.935 34.7938L143.053 34.9786H148.804C149.05 34.9786 149.204 34.7129 149.081 34.4998L149.012 34.3797C148.149 32.8781 147.066 31.3015 145.764 29.6499C144.495 28.0008 143.132 26.3839 141.674 24.7991C140.216 23.2141 138.726 21.7237 137.203 20.3279C135.824 19.0637 134.506 17.9783 133.25 17.0731C134.318 16.0304 135.451 14.9107 136.648 13.714C137.973 12.3883 139.299 11.0467 140.625 9.68946C141.982 8.30053 143.277 6.95874 144.508 5.6642L144.51 5.66249L144.512 5.66072C145.742 4.33535 146.847 3.13593 147.825 2.06251Z" fill="white"/>
<path fill-rule="evenodd" clip-rule="evenodd" d="M92.2728 1.14184C92.0964 1.14189 91.9533 1.28499 91.9533 1.46152V34.6791C91.9533 34.8555 92.0964 34.9986 92.2728 34.9986H96.8389V22.7857H103.509C104.259 23.6842 104.991 24.6243 105.705 25.6059L105.707 25.6097L105.71 25.6133C106.878 27.144 107.956 28.7408 108.947 30.4037L108.948 30.4056L108.949 30.4071C109.846 31.8793 110.628 33.3324 111.297 34.7678L111.405 34.9986H116.808C117.039 34.9986 117.194 34.7605 117.098 34.5497C116.476 33.1878 115.803 31.8548 115.055 30.5556C114.039 28.7403 112.924 26.9431 111.711 25.164C111.017 24.1473 110.309 23.1595 109.586 22.2008C111.602 21.5847 113.196 20.4704 114.349 18.8532L114.35 18.852C115.735 16.8947 116.421 14.5928 116.421 11.9637C116.421 10.157 116.107 8.50391 115.471 7.01019C114.833 5.49472 113.873 4.23792 112.594 3.24634C111.324 2.24957 109.759 1.61531 107.916 1.33087C107.486 1.25162 107.042 1.20413 106.584 1.18801C106.137 1.15733 105.747 1.14165 105.415 1.14165C104.015 1.14165 102.614 1.1415 101.213 1.14135C98.2327 1.14106 95.253 1.14086 92.2728 1.14184ZM111.444 11.9637C111.444 12.8363 111.299 13.6949 111.007 14.5413C110.721 15.3541 110.266 16.0667 109.636 16.6824C109.039 17.2653 108.252 17.6789 107.255 17.9102C106.938 17.982 106.598 18.0329 106.233 18.0621L106.232 18.0622L106.232 18.0622C105.873 18.0921 105.555 18.1068 105.278 18.1068H96.8389V5.82067H105.278C105.555 5.82067 105.873 5.83528 106.232 5.86517L106.24 5.86591L106.249 5.86625C106.604 5.88046 106.934 5.93001 107.239 6.01318L107.249 6.01592L107.259 6.01813C108.252 6.23411 109.037 6.64607 109.632 7.24171L109.634 7.24332L109.636 7.24494C110.265 7.8597 110.72 8.57933 111.007 9.40805V9.40903L111.007 9.41006C111.298 10.2402 111.444 11.0908 111.444 11.9637Z" fill="white"/>
<path fill-rule="evenodd" clip-rule="evenodd" d="M79.966 30.5448L79.9665 30.5458L79.967 30.5473C80.4409 31.9067 80.9467 33.2981 81.4843 34.7203L81.5818 34.9786H86.9869C87.2089 34.9786 87.3633 34.758 87.2873 34.5497C86.1067 31.3059 84.9148 28.066 83.699 24.8351C82.5943 21.8681 81.5054 19.0584 80.4316 16.406C79.3897 13.7535 78.3473 11.2268 77.3049 8.8258C76.2591 6.38555 75.1584 3.96951 74.0121 1.57498C73.9586 1.46408 73.8469 1.39355 73.7239 1.39355H69.4127C69.2897 1.39355 69.1774 1.46408 69.1245 1.57498C67.9777 3.96956 66.8775 6.38565 65.8317 8.82599C64.7893 11.2261 63.7317 13.7521 62.6584 16.4039L62.6574 16.4058L62.6569 16.4078C61.615 19.0594 60.5417 21.8685 59.4376 24.835C58.2212 28.066 57.0294 31.3059 55.8488 34.5497C55.7728 34.758 55.9272 34.9786 56.1492 34.9786H61.3234H61.4249L61.5435 34.8511C62.7917 33.5108 64.187 32.1959 65.7297 30.906L65.7312 30.9045L65.7327 30.9031C67.2813 29.5808 68.8961 28.3547 70.5766 27.224L70.5805 27.2216L70.584 27.2191C72.2394 26.0493 73.9057 24.9997 75.5823 24.0698L75.5842 24.0687L75.5862 24.0676C76.19 23.724 76.7844 23.4038 77.3696 23.1071L78.5007 26.338L78.5017 26.3404C79.0055 27.7575 79.4936 29.1594 79.966 30.5448ZM74.1512 14.6136L74.1522 14.6164L74.1532 14.6191C74.6085 15.7716 75.0638 16.9434 75.5191 18.1346C75.4852 18.1496 75.4504 18.1651 75.4152 18.1812C73.8131 18.9109 72.091 19.8542 70.2497 21.0092C68.4869 22.1148 66.7378 23.3161 65.0029 24.6127L65.7376 22.5148C66.7094 19.7881 67.6812 17.1553 68.653 14.6163C69.5465 12.3265 70.4771 10.1241 71.4445 8.00898C72.3835 10.1233 73.2858 12.3248 74.1512 14.6136Z" fill="white"/>
<path d="M57.1682 6.16692V1.71328C57.1682 1.53671 57.0251 1.39355 56.8482 1.39355H31.4724C31.296 1.39355 31.1529 1.53671 31.1529 1.71328V6.16692H41.4661V34.659C41.4661 34.8355 41.6092 34.9786 41.7861 34.9786H46.535C46.7114 34.9786 46.8545 34.8355 46.8545 34.659V6.16692H57.1682Z" fill="white"/>
<path d="M7.86887 34.5702L7.86739 34.5697C5.91296 33.7365 4.28737 32.5471 2.99846 31.0004L2.99699 30.998L2.99552 30.997C1.71985 29.4302 0.891119 27.5836 0.506407 25.4667C0.487294 25.3607 0.511312 25.2516 0.573552 25.1638C0.635792 25.0761 0.730864 25.0171 0.837211 25.0003L5.13569 24.3229C5.33907 24.2909 5.53364 24.4187 5.5846 24.6181C6.10703 26.6476 7.18227 28.2231 8.81227 29.365C10.4668 30.4971 12.4178 31.069 14.6819 31.069C16.1507 31.069 17.4631 30.8421 18.6251 30.3957C19.8003 29.934 20.7129 29.2866 21.3789 28.4613C22.0341 27.6493 22.3649 26.6884 22.3649 25.5587C22.3649 24.8573 22.2404 24.2833 22.0096 23.8219C22.0076 23.8177 22.0057 23.8136 22.0037 23.8093C21.7793 23.3178 21.4656 22.9073 21.0613 22.5728C21.0574 22.5696 21.0535 22.5664 21.05 22.563C20.6442 22.2008 20.1782 21.8946 19.6504 21.6452C19.1103 21.3901 18.5472 21.1798 17.9606 21.0144L17.9552 21.0129L9.38125 18.4663C8.42658 18.18 7.50376 17.822 6.61279 17.3923L6.61034 17.3911L6.6074 17.3898C5.70272 16.9374 4.89213 16.3785 4.17759 15.7129L4.17563 15.7108L4.17416 15.7096C3.44982 15.0182 2.87545 14.1963 2.45055 13.248L2.44958 13.2457C2.01733 12.2654 1.80806 11.1259 1.80806 9.8375C1.80806 7.77211 2.34176 5.98862 3.42728 4.50872L3.42777 4.50809C4.5177 3.02751 5.98745 1.90244 7.82231 1.12968C9.6552 0.358099 11.7111 -0.0154391 13.9841 0.000488456C16.2874 0.016367 18.3595 0.429553 20.1924 1.24916C22.0395 2.05245 23.5715 3.21222 24.781 4.72823C26.0091 6.24743 26.8281 8.06033 27.2441 10.1568C27.2652 10.2623 27.2427 10.3719 27.1819 10.4606C27.1211 10.5493 27.027 10.6098 26.9212 10.6283L22.506 11.3992C22.4012 11.4175 22.2938 11.3933 22.2071 11.332C22.1199 11.2707 22.0611 11.1774 22.0434 11.0726C21.8204 9.76448 21.3254 8.65489 20.5639 7.73256L20.5595 7.72722C19.8067 6.78249 18.8628 6.05865 17.7209 5.5545L17.717 5.55269C16.5727 5.03262 15.3122 4.76259 13.9302 4.74754H13.9297C12.605 4.73249 11.421 4.94328 10.3712 5.372C9.31852 5.8019 8.49714 6.39523 7.89141 7.14525L7.88896 7.14819C7.29449 7.86978 6.99897 8.69846 6.99897 9.65063C6.99897 10.596 7.26852 11.3253 7.77869 11.8767C8.32905 12.4558 9.00585 12.9234 9.81546 13.2771C10.6736 13.6293 11.5062 13.9196 12.3144 14.1483L12.3163 14.1488L18.7148 15.9936C19.4607 16.2 20.3125 16.4842 21.2691 16.8448C22.2703 17.2164 23.2358 17.7399 24.165 18.4126C25.1216 19.0893 25.9072 19.9928 26.5242 21.1131C27.1584 22.2482 27.4622 23.6597 27.4622 25.3251C27.4622 26.999 27.1241 28.5035 26.437 29.8291C25.7705 31.146 24.8344 32.2521 23.6337 33.1445L23.6308 33.1465C22.437 34.0178 21.0544 34.6755 19.4891 35.123C17.9228 35.5861 16.2497 35.8159 14.4717 35.8159C12.0434 35.8159 9.83996 35.4033 7.86887 34.5702Z" fill="white"/>
</svg>
