<svg width="24" height="24" viewBox="0 0 24 24" fill="none" xmlns="http://www.w3.org/2000/svg">
<rect width="24" height="24" rx="12" fill="#FFBC6C" fill-opacity="0.2"/>
<path d="M11.2695 14.5717V14.4773C11.2762 13.8608 11.3375 13.3703 11.4535 13.0057C11.5728 12.6411 11.7418 12.3461 11.9606 12.1207C12.1793 11.8954 12.4428 11.6899 12.7511 11.5043C12.9499 11.3783 13.1289 11.2375 13.288 11.0817C13.4471 10.9259 13.573 10.7469 13.6658 10.5447C13.7586 10.3426 13.805 10.1188 13.805 9.87358C13.805 9.5786 13.7354 9.32339 13.5962 9.10795C13.457 8.89252 13.2714 8.7268 13.0394 8.6108C12.8107 8.49148 12.5555 8.43182 12.2738 8.43182C12.0186 8.43182 11.775 8.48485 11.543 8.59091C11.311 8.69697 11.1187 8.86269 10.9663 9.08807C10.8138 9.31013 10.726 9.59683 10.7028 9.94815H9.19141C9.21461 9.35156 9.36541 8.84777 9.64382 8.43679C9.92223 8.02249 10.2901 7.70928 10.7475 7.49716C11.2082 7.28504 11.717 7.17898 12.2738 7.17898C12.8836 7.17898 13.4173 7.29332 13.8746 7.52202C14.332 7.7474 14.6867 8.06392 14.9386 8.47159C15.1938 8.87595 15.3214 9.34825 15.3214 9.88849C15.3214 10.2597 15.2634 10.5945 15.1474 10.8928C15.0314 11.1877 14.8656 11.4512 14.6502 11.6832C14.4381 11.9152 14.1829 12.1207 13.8846 12.2997C13.6029 12.4754 13.3742 12.6577 13.1985 12.8466C13.0262 13.0355 12.9002 13.2592 12.8207 13.5178C12.7411 13.7763 12.698 14.0961 12.6914 14.4773V14.5717H11.2695ZM12.0202 17.5945C11.7485 17.5945 11.5148 17.4983 11.3192 17.3061C11.1237 17.1106 11.0259 16.8752 11.0259 16.6001C11.0259 16.3284 11.1237 16.0964 11.3192 15.9041C11.5148 15.7086 11.7485 15.6108 12.0202 15.6108C12.2887 15.6108 12.5207 15.7086 12.7163 15.9041C12.9151 16.0964 13.0146 16.3284 13.0146 16.6001C13.0146 16.7824 12.9682 16.9498 12.8754 17.1023C12.7859 17.2514 12.6665 17.3707 12.5174 17.4602C12.3683 17.5497 12.2025 17.5945 12.0202 17.5945Z" fill="#FFBC6C"/>
</svg>
